<?xml version="1.0" encoding="UTF-8"?>
<svg id="Capa_1" xmlns="http://www.w3.org/2000/svg" version="1.1" viewBox="0 0 113.24 16.98">
  <!-- Generator: Adobe Illustrator 29.8.3, SVG Export Plug-In . SVG Version: 2.1.1 Build 3)  -->
  <defs>
    <style>
      .st0 {
        fill: #fff;
      }
    </style>
  </defs>
  <path class="st0" d="M44.86,4.2l1.64,8.69.22-.14,1.98-8.45c.07-.11.19-.09.3-.11,1.18-.15,2.66.13,3.88,0l2.16,8.8,1.84-8.79h3.63l-3.43,12.78-4.39-.11-1.94-7.98-2.04,7.98-4.35.05-3.47-12.73h3.99-.02Z"/>
  <path class="st0" d="M7.82.93c3.36.34,5.49,3.36,4.47,6.62-.51,1.64-1.61,2.32-3.05,2.98-.1.05-.16-.06-.15.16l3.48,6.29h-4.39l-3.22-5.93c-.23-.2-.68-.07-.97-.1v6.03H0V.93s7.82,0,7.82,0ZM3.99,8.08h3.12c.14,0,.8-.37.92-.51.59-.63.64-2.01.13-2.7-.15-.21-.84-.68-1.06-.68h-3.12v3.88h.01Z"/>
  <path class="st0" d="M70.72,15.34c-2.7,3.2-7.53,2.01-9.01-1.77-2.17-5.53,2.2-12.07,8.13-8.64l.89.9v-1.64h3.99v12.78h-3.99v-1.64h0ZM67.32,7.49c-3.13.53-2.86,6.77,1.18,6.18,3.31-.48,3.04-6.89-1.18-6.18Z"/>
  <path class="st0" d="M104.55,5.73c2.2-2.52,6.76-2.23,8.2.95.12.27.49,1.42.49,1.65v8.64h-3.88v-7.41c0-.07-.18-.68-.23-.8-.67-1.75-3.31-1.92-4.25-.31-.06.11-.33.63-.33.7v7.67s-.14.15-.15.15h-3.83V0h3.83s.15.14.15.15v5.57h0Z"/>
  <path class="st0" d="M26.88,11.56h-8.79c0,1.94,2.24,3.11,3.78,1.89.19-.15.61-.77.66-.77h4.14c-1.41,5.91-10.51,6.01-12.23.23-1.23-4.1.84-8.48,5.35-8.9s7.81,2.95,7.09,7.55ZM22.89,9.31c-.05-2.9-4.53-2.83-4.8,0h4.8Z"/>
  <path class="st0" d="M98.52,8.8h-4.14c-.07,0-.42-.72-.56-.87-.8-.82-2.36-.68-3.11.16-.81.9-.86,3.05-.47,4.14.59,1.64,2.69,2.17,3.78.71.15-.2.27-.66.31-.66h4.19c-.95,6.01-9.93,6.66-12.06,1.08-1.31-3.42-.07-7.85,3.66-9.02s7.66.5,8.4,4.47h0Z"/>
  <path class="st0" d="M82.06,4.2h2.55v3.12s-.14.15-.15.15h-2.4v5.57c0,.18.49.56.66.56h1.89v3.37h-2.91c-1.72,0-3.63-1.77-3.63-3.53v-5.98h-1.53v-3.27h1.53V1.17s.14-.15.15-.15h3.68s.15.14.15.15v3.02h0Z"/>
  <path class="st0" d="M38.83,7.27v3.22s-.14.15-.15.15h-9.81s-.15-.14-.15-.15v-3.22h10.12,0Z"/>
</svg>